<svg width="256" height="256" viewBox="0 0 256 256" fill="none" xmlns="http://www.w3.org/2000/svg">
<g clip-path="url(#clip0_82_1436)">
<path d="M256 0H0V256H256V0Z" fill="white"/>
<path d="M85.566 15.5151H77.5757V23.5054H85.566V15.5151Z" fill="black"/>
<path d="M101.081 15.5151H93.0908V23.5054H101.081V15.5151Z" fill="black"/>
<path d="M116.596 15.5151H108.606V23.5054H116.596V15.5151Z" fill="black"/>
<path d="M139.869 15.5151H131.879V23.5054H139.869V15.5151Z" fill="black"/>
<path d="M155.384 15.5151H147.394V23.5054H155.384V15.5151Z" fill="black"/>
<path d="M163.142 15.5151H155.152V23.5054H163.142V15.5151Z" fill="black"/>
<path d="M178.657 15.5151H170.667V23.5054H178.657V15.5151Z" fill="black"/>
<path d="M85.566 23.2727H77.5757V31.263H85.566V23.2727Z" fill="black"/>
<path d="M93.3236 23.2727H85.3333V31.263H93.3236V23.2727Z" fill="black"/>
<path d="M101.081 23.2727H93.0908V31.263H101.081V23.2727Z" fill="black"/>
<path d="M108.839 23.2727H100.848V31.263H108.839V23.2727Z" fill="black"/>
<path d="M116.596 23.2727H108.606V31.263H116.596V23.2727Z" fill="black"/>
<path d="M132.111 23.2727H124.121V31.263H132.111V23.2727Z" fill="black"/>
<path d="M155.384 23.2727H147.394V31.263H155.384V23.2727Z" fill="black"/>
<path d="M170.899 23.2727H162.909V31.263H170.899V23.2727Z" fill="black"/>
<path d="M85.566 31.0303H77.5757V39.0206H85.566V31.0303Z" fill="black"/>
<path d="M147.627 31.0303H139.636V39.0206H147.627V31.0303Z" fill="black"/>
<path d="M163.142 31.0303H155.152V39.0206H163.142V31.0303Z" fill="black"/>
<path d="M170.899 31.0303H162.909V39.0206H170.899V31.0303Z" fill="black"/>
<path d="M178.657 31.0303H170.667V39.0206H178.657V31.0303Z" fill="black"/>
<path d="M101.081 38.7879H93.0908V46.7782H101.081V38.7879Z" fill="black"/>
<path d="M124.354 38.7879H116.364V46.7782H124.354V38.7879Z" fill="black"/>
<path d="M132.111 38.7879H124.121V46.7782H132.111V38.7879Z" fill="black"/>
<path d="M139.869 38.7879H131.879V46.7782H139.869V38.7879Z" fill="black"/>
<path d="M147.627 38.7879H139.636V46.7782H147.627V38.7879Z" fill="black"/>
<path d="M155.384 38.7879H147.394V46.7782H155.384V38.7879Z" fill="black"/>
<path d="M170.899 38.7879H162.909V46.7782H170.899V38.7879Z" fill="black"/>
<path d="M93.3236 46.5454H85.3333V54.5357H93.3236V46.5454Z" fill="black"/>
<path d="M101.081 46.5454H93.0908V54.5357H101.081V46.5454Z" fill="black"/>
<path d="M108.839 46.5454H100.848V54.5357H108.839V46.5454Z" fill="black"/>
<path d="M116.596 46.5454H108.606V54.5357H116.596V46.5454Z" fill="black"/>
<path d="M147.627 46.5454H139.636V54.5357H147.627V46.5454Z" fill="black"/>
<path d="M163.142 46.5454H155.152V54.5357H163.142V46.5454Z" fill="black"/>
<path d="M170.899 46.5454H162.909V54.5357H170.899V46.5454Z" fill="black"/>
<path d="M85.566 54.303H77.5757V62.2933H85.566V54.303Z" fill="black"/>
<path d="M93.3236 54.303H85.3333V62.2933H93.3236V54.303Z" fill="black"/>
<path d="M101.081 54.303H93.0908V62.2933H101.081V54.303Z" fill="black"/>
<path d="M116.596 54.303H108.606V62.2933H116.596V54.303Z" fill="black"/>
<path d="M132.111 54.303H124.121V62.2933H132.111V54.303Z" fill="black"/>
<path d="M139.869 54.303H131.879V62.2933H139.869V54.303Z" fill="black"/>
<path d="M147.627 54.303H139.636V62.2933H147.627V54.303Z" fill="black"/>
<path d="M163.142 54.303H155.152V62.2933H163.142V54.303Z" fill="black"/>
<path d="M85.566 62.0606H77.5757V70.0509H85.566V62.0606Z" fill="black"/>
<path d="M101.081 62.0606H93.0908V70.0509H101.081V62.0606Z" fill="black"/>
<path d="M116.596 62.0606H108.606V70.0509H116.596V62.0606Z" fill="black"/>
<path d="M132.111 62.0606H124.121V70.0509H132.111V62.0606Z" fill="black"/>
<path d="M147.627 62.0606H139.636V70.0509H147.627V62.0606Z" fill="black"/>
<path d="M163.142 62.0606H155.152V70.0509H163.142V62.0606Z" fill="black"/>
<path d="M178.657 62.0606H170.667V70.0509H178.657V62.0606Z" fill="black"/>
<path d="M85.566 69.8182H77.5757V77.8085H85.566V69.8182Z" fill="black"/>
<path d="M108.839 69.8182H100.848V77.8085H108.839V69.8182Z" fill="black"/>
<path d="M116.596 69.8182H108.606V77.8085H116.596V69.8182Z" fill="black"/>
<path d="M132.111 69.8182H124.121V77.8085H132.111V69.8182Z" fill="black"/>
<path d="M139.869 69.8182H131.879V77.8085H139.869V69.8182Z" fill="black"/>
<path d="M147.627 69.8182H139.636V77.8085H147.627V69.8182Z" fill="black"/>
<path d="M170.899 69.8182H162.909V77.8085H170.899V69.8182Z" fill="black"/>
<path d="M39.0206 77.5757H31.0303V85.566H39.0206V77.5757Z" fill="black"/>
<path d="M46.7781 77.5757H38.7878V85.566H46.7781V77.5757Z" fill="black"/>
<path d="M54.5357 77.5757H46.5454V85.566H54.5357V77.5757Z" fill="black"/>
<path d="M70.0508 77.5757H62.0605V85.566H70.0508V77.5757Z" fill="black"/>
<path d="M85.566 77.5757H77.5757V85.566H85.566V77.5757Z" fill="black"/>
<path d="M124.354 77.5757H116.364V85.566H124.354V77.5757Z" fill="black"/>
<path d="M139.869 77.5757H131.879V85.566H139.869V77.5757Z" fill="black"/>
<path d="M147.627 77.5757H139.636V85.566H147.627V77.5757Z" fill="black"/>
<path d="M163.142 77.5757H155.152V85.566H163.142V77.5757Z" fill="black"/>
<path d="M186.415 77.5757H178.424V85.566H186.415V77.5757Z" fill="black"/>
<path d="M194.172 77.5757H186.182V85.566H194.172V77.5757Z" fill="black"/>
<path d="M201.93 77.5757H193.939V85.566H201.93V77.5757Z" fill="black"/>
<path d="M225.202 77.5757H217.212V85.566H225.202V77.5757Z" fill="black"/>
<path d="M232.96 77.5757H224.97V85.566H232.96V77.5757Z" fill="black"/>
<path d="M240.718 77.5757H232.727V85.566H240.718V77.5757Z" fill="black"/>
<path d="M31.263 85.3333H23.2727V93.3236H31.263V85.3333Z" fill="black"/>
<path d="M77.8084 85.3333H69.8181V93.3236H77.8084V85.3333Z" fill="black"/>
<path d="M85.566 85.3333H77.5757V93.3236H85.566V85.3333Z" fill="black"/>
<path d="M93.3236 85.3333H85.3333V93.3236H93.3236V85.3333Z" fill="black"/>
<path d="M108.839 85.3333H100.848V93.3236H108.839V85.3333Z" fill="black"/>
<path d="M116.596 85.3333H108.606V93.3236H116.596V85.3333Z" fill="black"/>
<path d="M147.627 85.3333H139.636V93.3236H147.627V85.3333Z" fill="black"/>
<path d="M155.384 85.3333H147.394V93.3236H155.384V85.3333Z" fill="black"/>
<path d="M194.172 85.3333H186.182V93.3236H194.172V85.3333Z" fill="black"/>
<path d="M201.93 85.3333H193.939V93.3236H201.93V85.3333Z" fill="black"/>
<path d="M209.687 85.3333H201.697V93.3236H209.687V85.3333Z" fill="black"/>
<path d="M217.445 85.3333H209.455V93.3236H217.445V85.3333Z" fill="black"/>
<path d="M225.202 85.3333H217.212V93.3236H225.202V85.3333Z" fill="black"/>
<path d="M240.718 85.3333H232.727V93.3236H240.718V85.3333Z" fill="black"/>
<path d="M31.263 93.0909H23.2727V101.081H31.263V93.0909Z" fill="black"/>
<path d="M39.0206 93.0909H31.0303V101.081H39.0206V93.0909Z" fill="black"/>
<path d="M46.7781 93.0909H38.7878V101.081H46.7781V93.0909Z" fill="black"/>
<path d="M54.5357 93.0909H46.5454V101.081H54.5357V93.0909Z" fill="black"/>
<path d="M62.2933 93.0909H54.303V101.081H62.2933V93.0909Z" fill="black"/>
<path d="M70.0508 93.0909H62.0605V101.081H70.0508V93.0909Z" fill="black"/>
<path d="M77.8084 93.0909H69.8181V101.081H77.8084V93.0909Z" fill="black"/>
<path d="M101.081 93.0909H93.0908V101.081H101.081V93.0909Z" fill="black"/>
<path d="M108.839 93.0909H100.848V101.081H108.839V93.0909Z" fill="black"/>
<path d="M124.354 93.0909H116.364V101.081H124.354V93.0909Z" fill="black"/>
<path d="M132.111 93.0909H124.121V101.081H132.111V93.0909Z" fill="black"/>
<path d="M139.869 93.0909H131.879V101.081H139.869V93.0909Z" fill="black"/>
<path d="M186.415 93.0909H178.424V101.081H186.415V93.0909Z" fill="black"/>
<path d="M194.172 93.0909H186.182V101.081H194.172V93.0909Z" fill="black"/>
<path d="M225.202 93.0909H217.212V101.081H225.202V93.0909Z" fill="black"/>
<path d="M39.0206 100.848H31.0303V108.839H39.0206V100.848Z" fill="black"/>
<path d="M93.3236 100.848H85.3333V108.839H93.3236V100.848Z" fill="black"/>
<path d="M101.081 100.848H93.0908V108.839H101.081V100.848Z" fill="black"/>
<path d="M116.596 100.848H108.606V108.839H116.596V100.848Z" fill="black"/>
<path d="M155.384 100.848H147.394V108.839H155.384V100.848Z" fill="black"/>
<path d="M178.657 100.848H170.667V108.839H178.657V100.848Z" fill="black"/>
<path d="M186.415 100.848H178.424V108.839H186.415V100.848Z" fill="black"/>
<path d="M194.172 100.848H186.182V108.839H194.172V100.848Z" fill="black"/>
<path d="M217.445 100.848H209.455V108.839H217.445V100.848Z" fill="black"/>
<path d="M232.96 100.848H224.97V108.839H232.96V100.848Z" fill="black"/>
<path d="M31.263 108.606H23.2727V116.596H31.263V108.606Z" fill="black"/>
<path d="M39.0206 108.606H31.0303V116.596H39.0206V108.606Z" fill="black"/>
<path d="M46.7781 108.606H38.7878V116.596H46.7781V108.606Z" fill="black"/>
<path d="M54.5357 108.606H46.5454V116.596H54.5357V108.606Z" fill="black"/>
<path d="M62.2933 108.606H54.303V116.596H62.2933V108.606Z" fill="black"/>
<path d="M70.0508 108.606H62.0605V116.596H70.0508V108.606Z" fill="black"/>
<path d="M77.8084 108.606H69.8181V116.596H77.8084V108.606Z" fill="black"/>
<path d="M85.566 108.606H77.5757V116.596H85.566V108.606Z" fill="black"/>
<path d="M108.839 108.606H100.848V116.596H108.839V108.606Z" fill="black"/>
<path d="M124.354 108.606H116.364V116.596H124.354V108.606Z" fill="black"/>
<path d="M132.111 108.606H124.121V116.596H132.111V108.606Z" fill="black"/>
<path d="M147.627 108.606H139.636V116.596H147.627V108.606Z" fill="black"/>
<path d="M178.657 108.606H170.667V116.596H178.657V108.606Z" fill="black"/>
<path d="M186.415 108.606H178.424V116.596H186.415V108.606Z" fill="black"/>
<path d="M201.93 108.606H193.939V116.596H201.93V108.606Z" fill="black"/>
<path d="M225.202 108.606H217.212V116.596H225.202V108.606Z" fill="black"/>
<path d="M232.96 108.606H224.97V116.596H232.96V108.606Z" fill="black"/>
<path d="M240.718 108.606H232.727V116.596H240.718V108.606Z" fill="black"/>
<path d="M39.0206 116.364H31.0303V124.354H39.0206V116.364Z" fill="black"/>
<path d="M46.7781 116.364H38.7878V124.354H46.7781V116.364Z" fill="black"/>
<path d="M54.5357 116.364H46.5454V124.354H54.5357V116.364Z" fill="black"/>
<path d="M62.2933 116.364H54.303V124.354H62.2933V116.364Z" fill="black"/>
<path d="M77.8084 116.364H69.8181V124.354H77.8084V116.364Z" fill="black"/>
<path d="M101.081 116.364H93.0908V124.354H101.081V116.364Z" fill="black"/>
<path d="M116.596 116.364H108.606V124.354H116.596V116.364Z" fill="black"/>
<path d="M124.354 116.364H116.364V124.354H124.354V116.364Z" fill="black"/>
<path d="M139.869 116.364H131.879V124.354H139.869V116.364Z" fill="black"/>
<path d="M163.142 116.364H155.152V124.354H163.142V116.364Z" fill="black"/>
<path d="M170.899 116.364H162.909V124.354H170.899V116.364Z" fill="black"/>
<path d="M178.657 116.364H170.667V124.354H178.657V116.364Z" fill="black"/>
<path d="M186.415 116.364H178.424V124.354H186.415V116.364Z" fill="black"/>
<path d="M194.172 116.364H186.182V124.354H194.172V116.364Z" fill="black"/>
<path d="M209.687 116.364H201.697V124.354H209.687V116.364Z" fill="black"/>
<path d="M217.445 116.364H209.455V124.354H217.445V116.364Z" fill="black"/>
<path d="M232.96 116.364H224.97V124.354H232.96V116.364Z" fill="black"/>
<path d="M240.718 116.364H232.727V124.354H240.718V116.364Z" fill="black"/>
<path d="M23.5054 124.121H15.5151V132.112H23.5054V124.121Z" fill="black"/>
<path d="M62.2933 124.121H54.303V132.112H62.2933V124.121Z" fill="black"/>
<path d="M70.0508 124.121H62.0605V132.112H70.0508V124.121Z" fill="black"/>
<path d="M85.566 124.121H77.5757V132.112H85.566V124.121Z" fill="black"/>
<path d="M101.081 124.121H93.0908V132.112H101.081V124.121Z" fill="black"/>
<path d="M116.596 124.121H108.606V132.112H116.596V124.121Z" fill="black"/>
<path d="M132.111 124.121H124.121V132.112H132.111V124.121Z" fill="black"/>
<path d="M155.384 124.121H147.394V132.112H155.384V124.121Z" fill="black"/>
<path d="M163.142 124.121H155.152V132.112H163.142V124.121Z" fill="black"/>
<path d="M178.657 124.121H170.667V132.112H178.657V124.121Z" fill="black"/>
<path d="M186.415 124.121H178.424V132.112H186.415V124.121Z" fill="black"/>
<path d="M194.172 124.121H186.182V132.112H194.172V124.121Z" fill="black"/>
<path d="M201.93 124.121H193.939V132.112H201.93V124.121Z" fill="black"/>
<path d="M23.5054 131.879H15.5151V139.869H23.5054V131.879Z" fill="black"/>
<path d="M31.263 131.879H23.2727V139.869H31.263V131.879Z" fill="black"/>
<path d="M39.0206 131.879H31.0303V139.869H39.0206V131.879Z" fill="black"/>
<path d="M54.5357 131.879H46.5454V139.869H54.5357V131.879Z" fill="black"/>
<path d="M77.8084 131.879H69.8181V139.869H77.8084V131.879Z" fill="black"/>
<path d="M85.566 131.879H77.5757V139.869H85.566V131.879Z" fill="black"/>
<path d="M93.3236 131.879H85.3333V139.869H93.3236V131.879Z" fill="black"/>
<path d="M116.596 131.879H108.606V139.869H116.596V131.879Z" fill="black"/>
<path d="M124.354 131.879H116.364V139.869H124.354V131.879Z" fill="black"/>
<path d="M132.111 131.879H124.121V139.869H132.111V131.879Z" fill="black"/>
<path d="M139.869 131.879H131.879V139.869H139.869V131.879Z" fill="black"/>
<path d="M155.384 131.879H147.394V139.869H155.384V131.879Z" fill="black"/>
<path d="M186.415 131.879H178.424V139.869H186.415V131.879Z" fill="black"/>
<path d="M209.687 131.879H201.697V139.869H209.687V131.879Z" fill="black"/>
<path d="M217.445 131.879H209.455V139.869H217.445V131.879Z" fill="black"/>
<path d="M31.263 139.636H23.2727V147.627H31.263V139.636Z" fill="black"/>
<path d="M39.0206 139.636H31.0303V147.627H39.0206V139.636Z" fill="black"/>
<path d="M46.7781 139.636H38.7878V147.627H46.7781V139.636Z" fill="black"/>
<path d="M54.5357 139.636H46.5454V147.627H54.5357V139.636Z" fill="black"/>
<path d="M62.2933 139.636H54.303V147.627H62.2933V139.636Z" fill="black"/>
<path d="M70.0508 139.636H62.0605V147.627H70.0508V139.636Z" fill="black"/>
<path d="M77.8084 139.636H69.8181V147.627H77.8084V139.636Z" fill="black"/>
<path d="M85.566 139.636H77.5757V147.627H85.566V139.636Z" fill="black"/>
<path d="M108.839 139.636H100.848V147.627H108.839V139.636Z" fill="black"/>
<path d="M124.354 139.636H116.364V147.627H124.354V139.636Z" fill="black"/>
<path d="M132.111 139.636H124.121V147.627H132.111V139.636Z" fill="black"/>
<path d="M155.384 139.636H147.394V147.627H155.384V139.636Z" fill="black"/>
<path d="M178.657 139.636H170.667V147.627H178.657V139.636Z" fill="black"/>
<path d="M201.93 139.636H193.939V147.627H201.93V139.636Z" fill="black"/>
<path d="M217.445 139.636H209.455V147.627H217.445V139.636Z" fill="black"/>
<path d="M225.202 139.636H217.212V147.627H225.202V139.636Z" fill="black"/>
<path d="M232.96 139.636H224.97V147.627H232.96V139.636Z" fill="black"/>
<path d="M240.718 139.636H232.727V147.627H240.718V139.636Z" fill="black"/>
<path d="M23.5054 147.394H15.5151V155.384H23.5054V147.394Z" fill="black"/>
<path d="M39.0206 147.394H31.0303V155.384H39.0206V147.394Z" fill="black"/>
<path d="M46.7781 147.394H38.7878V155.384H46.7781V147.394Z" fill="black"/>
<path d="M54.5357 147.394H46.5454V155.384H54.5357V147.394Z" fill="black"/>
<path d="M77.8084 147.394H69.8181V155.384H77.8084V147.394Z" fill="black"/>
<path d="M132.111 147.394H124.121V155.384H132.111V147.394Z" fill="black"/>
<path d="M139.869 147.394H131.879V155.384H139.869V147.394Z" fill="black"/>
<path d="M147.627 147.394H139.636V155.384H147.627V147.394Z" fill="black"/>
<path d="M163.142 147.394H155.152V155.384H163.142V147.394Z" fill="black"/>
<path d="M178.657 147.394H170.667V155.384H178.657V147.394Z" fill="black"/>
<path d="M186.415 147.394H178.424V155.384H186.415V147.394Z" fill="black"/>
<path d="M194.172 147.394H186.182V155.384H194.172V147.394Z" fill="black"/>
<path d="M201.93 147.394H193.939V155.384H201.93V147.394Z" fill="black"/>
<path d="M209.687 147.394H201.697V155.384H209.687V147.394Z" fill="black"/>
<path d="M225.202 147.394H217.212V155.384H225.202V147.394Z" fill="black"/>
<path d="M232.96 147.394H224.97V155.384H232.96V147.394Z" fill="black"/>
<path d="M240.718 147.394H232.727V155.384H240.718V147.394Z" fill="black"/>
<path d="M23.5054 155.151H15.5151V163.142H23.5054V155.151Z" fill="black"/>
<path d="M39.0206 155.151H31.0303V163.142H39.0206V155.151Z" fill="black"/>
<path d="M54.5357 155.151H46.5454V163.142H54.5357V155.151Z" fill="black"/>
<path d="M62.2933 155.151H54.303V163.142H62.2933V155.151Z" fill="black"/>
<path d="M70.0508 155.151H62.0605V163.142H70.0508V155.151Z" fill="black"/>
<path d="M85.566 155.151H77.5757V163.142H85.566V155.151Z" fill="black"/>
<path d="M93.3236 155.151H85.3333V163.142H93.3236V155.151Z" fill="black"/>
<path d="M124.354 155.151H116.364V163.142H124.354V155.151Z" fill="black"/>
<path d="M163.142 155.151H155.152V163.142H163.142V155.151Z" fill="black"/>
<path d="M178.657 155.151H170.667V163.142H178.657V155.151Z" fill="black"/>
<path d="M194.172 155.151H186.182V163.142H194.172V155.151Z" fill="black"/>
<path d="M201.93 155.151H193.939V163.142H201.93V155.151Z" fill="black"/>
<path d="M209.687 155.151H201.697V163.142H209.687V155.151Z" fill="black"/>
<path d="M217.445 155.151H209.455V163.142H217.445V155.151Z" fill="black"/>
<path d="M225.202 155.151H217.212V163.142H225.202V155.151Z" fill="black"/>
<path d="M23.5054 162.909H15.5151V170.899H23.5054V162.909Z" fill="black"/>
<path d="M54.5357 162.909H46.5454V170.899H54.5357V162.909Z" fill="black"/>
<path d="M77.8084 162.909H69.8181V170.899H77.8084V162.909Z" fill="black"/>
<path d="M101.081 162.909H93.0908V170.899H101.081V162.909Z" fill="black"/>
<path d="M124.354 162.909H116.364V170.899H124.354V162.909Z" fill="black"/>
<path d="M132.111 162.909H124.121V170.899H132.111V162.909Z" fill="black"/>
<path d="M139.869 162.909H131.879V170.899H139.869V162.909Z" fill="black"/>
<path d="M147.627 162.909H139.636V170.899H147.627V162.909Z" fill="black"/>
<path d="M170.899 162.909H162.909V170.899H170.899V162.909Z" fill="black"/>
<path d="M178.657 162.909H170.667V170.899H178.657V162.909Z" fill="black"/>
<path d="M194.172 162.909H186.182V170.899H194.172V162.909Z" fill="black"/>
<path d="M201.93 162.909H193.939V170.899H201.93V162.909Z" fill="black"/>
<path d="M232.96 162.909H224.97V170.899H232.96V162.909Z" fill="black"/>
<path d="M240.718 162.909H232.727V170.899H240.718V162.909Z" fill="black"/>
<path d="M23.5054 170.667H15.5151V178.657H23.5054V170.667Z" fill="black"/>
<path d="M39.0206 170.667H31.0303V178.657H39.0206V170.667Z" fill="black"/>
<path d="M46.7781 170.667H38.7878V178.657H46.7781V170.667Z" fill="black"/>
<path d="M62.2933 170.667H54.303V178.657H62.2933V170.667Z" fill="black"/>
<path d="M70.0508 170.667H62.0605V178.657H70.0508V170.667Z" fill="black"/>
<path d="M85.566 170.667H77.5757V178.657H85.566V170.667Z" fill="black"/>
<path d="M108.839 170.667H100.848V178.657H108.839V170.667Z" fill="black"/>
<path d="M116.596 170.667H108.606V178.657H116.596V170.667Z" fill="black"/>
<path d="M132.111 170.667H124.121V178.657H132.111V170.667Z" fill="black"/>
<path d="M147.627 170.667H139.636V178.657H147.627V170.667Z" fill="black"/>
<path d="M178.657 170.667H170.667V178.657H178.657V170.667Z" fill="black"/>
<path d="M186.415 170.667H178.424V178.657H186.415V170.667Z" fill="black"/>
<path d="M194.172 170.667H186.182V178.657H194.172V170.667Z" fill="black"/>
<path d="M201.93 170.667H193.939V178.657H201.93V170.667Z" fill="black"/>
<path d="M209.687 170.667H201.697V178.657H209.687V170.667Z" fill="black"/>
<path d="M225.202 170.667H217.212V178.657H225.202V170.667Z" fill="black"/>
<path d="M85.566 178.424H77.5757V186.415H85.566V178.424Z" fill="black"/>
<path d="M93.3236 178.424H85.3333V186.415H93.3236V178.424Z" fill="black"/>
<path d="M101.081 178.424H93.0908V186.415H101.081V178.424Z" fill="black"/>
<path d="M108.839 178.424H100.848V186.415H108.839V178.424Z" fill="black"/>
<path d="M116.596 178.424H108.606V186.415H116.596V178.424Z" fill="black"/>
<path d="M124.354 178.424H116.364V186.415H124.354V178.424Z" fill="black"/>
<path d="M132.111 178.424H124.121V186.415H132.111V178.424Z" fill="black"/>
<path d="M139.869 178.424H131.879V186.415H139.869V178.424Z" fill="black"/>
<path d="M155.384 178.424H147.394V186.415H155.384V178.424Z" fill="black"/>
<path d="M163.142 178.424H155.152V186.415H163.142V178.424Z" fill="black"/>
<path d="M170.899 178.424H162.909V186.415H170.899V178.424Z" fill="black"/>
<path d="M178.657 178.424H170.667V186.415H178.657V178.424Z" fill="black"/>
<path d="M209.687 178.424H201.697V186.415H209.687V178.424Z" fill="black"/>
<path d="M217.445 178.424H209.455V186.415H217.445V178.424Z" fill="black"/>
<path d="M232.96 178.424H224.97V186.415H232.96V178.424Z" fill="black"/>
<path d="M240.718 178.424H232.727V186.415H240.718V178.424Z" fill="black"/>
<path d="M93.3236 186.182H85.3333V194.172H93.3236V186.182Z" fill="black"/>
<path d="M101.081 186.182H93.0908V194.172H101.081V186.182Z" fill="black"/>
<path d="M108.839 186.182H100.848V194.172H108.839V186.182Z" fill="black"/>
<path d="M124.354 186.182H116.364V194.172H124.354V186.182Z" fill="black"/>
<path d="M132.111 186.182H124.121V194.172H132.111V186.182Z" fill="black"/>
<path d="M139.869 186.182H131.879V194.172H139.869V186.182Z" fill="black"/>
<path d="M155.384 186.182H147.394V194.172H155.384V186.182Z" fill="black"/>
<path d="M170.899 186.182H162.909V194.172H170.899V186.182Z" fill="black"/>
<path d="M178.657 186.182H170.667V194.172H178.657V186.182Z" fill="black"/>
<path d="M194.172 186.182H186.182V194.172H194.172V186.182Z" fill="black"/>
<path d="M209.687 186.182H201.697V194.172H209.687V186.182Z" fill="black"/>
<path d="M101.081 193.939H93.0908V201.93H101.081V193.939Z" fill="black"/>
<path d="M124.354 193.939H116.364V201.93H124.354V193.939Z" fill="black"/>
<path d="M132.111 193.939H124.121V201.93H132.111V193.939Z" fill="black"/>
<path d="M139.869 193.939H131.879V201.93H139.869V193.939Z" fill="black"/>
<path d="M155.384 193.939H147.394V201.93H155.384V193.939Z" fill="black"/>
<path d="M170.899 193.939H162.909V201.93H170.899V193.939Z" fill="black"/>
<path d="M178.657 193.939H170.667V201.93H178.657V193.939Z" fill="black"/>
<path d="M209.687 193.939H201.697V201.93H209.687V193.939Z" fill="black"/>
<path d="M217.445 193.939H209.455V201.93H217.445V193.939Z" fill="black"/>
<path d="M232.96 193.939H224.97V201.93H232.96V193.939Z" fill="black"/>
<path d="M85.566 201.697H77.5757V209.687H85.566V201.697Z" fill="black"/>
<path d="M93.3236 201.697H85.3333V209.687H93.3236V201.697Z" fill="black"/>
<path d="M101.081 201.697H93.0908V209.687H101.081V201.697Z" fill="black"/>
<path d="M116.596 201.697H108.606V209.687H116.596V201.697Z" fill="black"/>
<path d="M132.111 201.697H124.121V209.687H132.111V201.697Z" fill="black"/>
<path d="M139.869 201.697H131.879V209.687H139.869V201.697Z" fill="black"/>
<path d="M147.627 201.697H139.636V209.687H147.627V201.697Z" fill="black"/>
<path d="M163.142 201.697H155.152V209.687H163.142V201.697Z" fill="black"/>
<path d="M178.657 201.697H170.667V209.687H178.657V201.697Z" fill="black"/>
<path d="M186.415 201.697H178.424V209.687H186.415V201.697Z" fill="black"/>
<path d="M194.172 201.697H186.182V209.687H194.172V201.697Z" fill="black"/>
<path d="M201.93 201.697H193.939V209.687H201.93V201.697Z" fill="black"/>
<path d="M209.687 201.697H201.697V209.687H209.687V201.697Z" fill="black"/>
<path d="M217.445 201.697H209.455V209.687H217.445V201.697Z" fill="black"/>
<path d="M225.202 201.697H217.212V209.687H225.202V201.697Z" fill="black"/>
<path d="M240.718 201.697H232.727V209.687H240.718V201.697Z" fill="black"/>
<path d="M85.566 209.455H77.5757V217.445H85.566V209.455Z" fill="black"/>
<path d="M93.3236 209.455H85.3333V217.445H93.3236V209.455Z" fill="black"/>
<path d="M108.839 209.455H100.848V217.445H108.839V209.455Z" fill="black"/>
<path d="M116.596 209.455H108.606V217.445H116.596V209.455Z" fill="black"/>
<path d="M132.111 209.455H124.121V217.445H132.111V209.455Z" fill="black"/>
<path d="M147.627 209.455H139.636V217.445H147.627V209.455Z" fill="black"/>
<path d="M163.142 209.455H155.152V217.445H163.142V209.455Z" fill="black"/>
<path d="M170.899 209.455H162.909V217.445H170.899V209.455Z" fill="black"/>
<path d="M178.657 209.455H170.667V217.445H178.657V209.455Z" fill="black"/>
<path d="M186.415 209.455H178.424V217.445H186.415V209.455Z" fill="black"/>
<path d="M201.93 209.455H193.939V217.445H201.93V209.455Z" fill="black"/>
<path d="M217.445 209.455H209.455V217.445H217.445V209.455Z" fill="black"/>
<path d="M225.202 209.455H217.212V217.445H225.202V209.455Z" fill="black"/>
<path d="M85.566 217.212H77.5757V225.202H85.566V217.212Z" fill="black"/>
<path d="M93.3236 217.212H85.3333V225.202H93.3236V217.212Z" fill="black"/>
<path d="M108.839 217.212H100.848V225.202H108.839V217.212Z" fill="black"/>
<path d="M116.596 217.212H108.606V225.202H116.596V217.212Z" fill="black"/>
<path d="M132.111 217.212H124.121V225.202H132.111V217.212Z" fill="black"/>
<path d="M139.869 217.212H131.879V225.202H139.869V217.212Z" fill="black"/>
<path d="M163.142 217.212H155.152V225.202H163.142V217.212Z" fill="black"/>
<path d="M170.899 217.212H162.909V225.202H170.899V217.212Z" fill="black"/>
<path d="M178.657 217.212H170.667V225.202H178.657V217.212Z" fill="black"/>
<path d="M186.415 217.212H178.424V225.202H186.415V217.212Z" fill="black"/>
<path d="M194.172 217.212H186.182V225.202H194.172V217.212Z" fill="black"/>
<path d="M201.93 217.212H193.939V225.202H201.93V217.212Z" fill="black"/>
<path d="M209.687 217.212H201.697V225.202H209.687V217.212Z" fill="black"/>
<path d="M217.445 217.212H209.455V225.202H217.445V217.212Z" fill="black"/>
<path d="M225.202 217.212H217.212V225.202H225.202V217.212Z" fill="black"/>
<path d="M232.96 217.212H224.97V225.202H232.96V217.212Z" fill="black"/>
<path d="M101.081 224.97H93.0908V232.96H101.081V224.97Z" fill="black"/>
<path d="M108.839 224.97H100.848V232.96H108.839V224.97Z" fill="black"/>
<path d="M124.354 224.97H116.364V232.96H124.354V224.97Z" fill="black"/>
<path d="M132.111 224.97H124.121V232.96H132.111V224.97Z" fill="black"/>
<path d="M170.899 224.97H162.909V232.96H170.899V224.97Z" fill="black"/>
<path d="M186.415 224.97H178.424V232.96H186.415V224.97Z" fill="black"/>
<path d="M209.687 224.97H201.697V232.96H209.687V224.97Z" fill="black"/>
<path d="M217.445 224.97H209.455V232.96H217.445V224.97Z" fill="black"/>
<path d="M232.96 224.97H224.97V232.96H232.96V224.97Z" fill="black"/>
<path d="M101.081 232.727H93.0908V240.718H101.081V232.727Z" fill="black"/>
<path d="M139.869 232.727H131.879V240.718H139.869V232.727Z" fill="black"/>
<path d="M147.627 232.727H139.636V240.718H147.627V232.727Z" fill="black"/>
<path d="M155.384 232.727H147.394V240.718H155.384V232.727Z" fill="black"/>
<path d="M170.899 232.727H162.909V240.718H170.899V232.727Z" fill="black"/>
<path d="M209.687 232.727H201.697V240.718H209.687V232.727Z" fill="black"/>
<path d="M225.202 232.727H217.212V240.718H225.202V232.727Z" fill="black"/>
<path d="M15.5151 15.5151V69.8182H69.8182V15.5151H15.5151ZM62.0606 62.0606H23.2727V23.2727H62.0606V62.0606Z" fill="black"/>
<path d="M186.182 15.5151V69.8182H240.485V15.5151H186.182ZM232.727 62.0606H193.939V23.2727H232.727V62.0606Z" fill="black"/>
<path d="M15.5151 186.182V240.485H69.8182V186.182H15.5151ZM62.0606 232.727H23.2727V193.939H62.0606V232.727Z" fill="black"/>
<path d="M54.303 31.0303H31.0303V54.303H54.303V31.0303Z" fill="black"/>
<path d="M224.97 31.0303H201.697V54.303H224.97V31.0303Z" fill="black"/>
<path d="M54.303 201.697H31.0303V224.97H54.303V201.697Z" fill="black"/>
</g>
<defs>
<clipPath id="clip0_82_1436">
<rect width="256" height="256" fill="white"/>
</clipPath>
</defs>
</svg>
