<svg width="256" height="256" viewBox="0 0 256 256" fill="none" xmlns="http://www.w3.org/2000/svg">
<g clip-path="url(#clip0_81_28)">
<path d="M256 0H0V256H256V0Z" fill="white"/>
<path d="M85.566 15.5151H77.5757V23.5054H85.566V15.5151Z" fill="black"/>
<path d="M93.3236 15.5151H85.3333V23.5054H93.3236V15.5151Z" fill="black"/>
<path d="M101.081 15.5151H93.0908V23.5054H101.081V15.5151Z" fill="black"/>
<path d="M139.869 15.5151H131.879V23.5054H139.869V15.5151Z" fill="black"/>
<path d="M147.627 15.5151H139.636V23.5054H147.627V15.5151Z" fill="black"/>
<path d="M155.384 15.5151H147.394V23.5054H155.384V15.5151Z" fill="black"/>
<path d="M163.142 15.5151H155.152V23.5054H163.142V15.5151Z" fill="black"/>
<path d="M85.566 23.2727H77.5757V31.263H85.566V23.2727Z" fill="black"/>
<path d="M93.3236 23.2727H85.3333V31.263H93.3236V23.2727Z" fill="black"/>
<path d="M101.081 23.2727H93.0908V31.263H101.081V23.2727Z" fill="black"/>
<path d="M116.596 23.2727H108.606V31.263H116.596V23.2727Z" fill="black"/>
<path d="M132.111 23.2727H124.121V31.263H132.111V23.2727Z" fill="black"/>
<path d="M147.627 23.2727H139.636V31.263H147.627V23.2727Z" fill="black"/>
<path d="M155.384 23.2727H147.394V31.263H155.384V23.2727Z" fill="black"/>
<path d="M178.657 23.2727H170.667V31.263H178.657V23.2727Z" fill="black"/>
<path d="M85.566 31.0303H77.5757V39.0206H85.566V31.0303Z" fill="black"/>
<path d="M108.839 31.0303H100.848V39.0206H108.839V31.0303Z" fill="black"/>
<path d="M116.596 31.0303H108.606V39.0206H116.596V31.0303Z" fill="black"/>
<path d="M124.354 31.0303H116.364V39.0206H124.354V31.0303Z" fill="black"/>
<path d="M132.111 31.0303H124.121V39.0206H132.111V31.0303Z" fill="black"/>
<path d="M163.142 31.0303H155.152V39.0206H163.142V31.0303Z" fill="black"/>
<path d="M178.657 31.0303H170.667V39.0206H178.657V31.0303Z" fill="black"/>
<path d="M101.081 38.7878H93.0908V46.7781H101.081V38.7878Z" fill="black"/>
<path d="M108.839 38.7878H100.848V46.7781H108.839V38.7878Z" fill="black"/>
<path d="M124.354 38.7878H116.364V46.7781H124.354V38.7878Z" fill="black"/>
<path d="M139.869 38.7878H131.879V46.7781H139.869V38.7878Z" fill="black"/>
<path d="M147.627 38.7878H139.636V46.7781H147.627V38.7878Z" fill="black"/>
<path d="M155.384 38.7878H147.394V46.7781H155.384V38.7878Z" fill="black"/>
<path d="M170.899 38.7878H162.909V46.7781H170.899V38.7878Z" fill="black"/>
<path d="M93.3236 46.5454H85.3333V54.5357H93.3236V46.5454Z" fill="black"/>
<path d="M101.081 46.5454H93.0908V54.5357H101.081V46.5454Z" fill="black"/>
<path d="M108.839 46.5454H100.848V54.5357H108.839V46.5454Z" fill="black"/>
<path d="M132.111 46.5454H124.121V54.5357H132.111V46.5454Z" fill="black"/>
<path d="M155.384 46.5454H147.394V54.5357H155.384V46.5454Z" fill="black"/>
<path d="M163.142 46.5454H155.152V54.5357H163.142V46.5454Z" fill="black"/>
<path d="M170.899 46.5454H162.909V54.5357H170.899V46.5454Z" fill="black"/>
<path d="M85.566 54.303H77.5757V62.2933H85.566V54.303Z" fill="black"/>
<path d="M93.3236 54.303H85.3333V62.2933H93.3236V54.303Z" fill="black"/>
<path d="M124.354 54.303H116.364V62.2933H124.354V54.303Z" fill="black"/>
<path d="M132.111 54.303H124.121V62.2933H132.111V54.303Z" fill="black"/>
<path d="M147.627 54.303H139.636V62.2933H147.627V54.303Z" fill="black"/>
<path d="M155.384 54.303H147.394V62.2933H155.384V54.303Z" fill="black"/>
<path d="M85.566 62.0606H77.5757V70.0509H85.566V62.0606Z" fill="black"/>
<path d="M101.081 62.0606H93.0908V70.0509H101.081V62.0606Z" fill="black"/>
<path d="M116.596 62.0606H108.606V70.0509H116.596V62.0606Z" fill="black"/>
<path d="M132.111 62.0606H124.121V70.0509H132.111V62.0606Z" fill="black"/>
<path d="M147.627 62.0606H139.636V70.0509H147.627V62.0606Z" fill="black"/>
<path d="M163.142 62.0606H155.152V70.0509H163.142V62.0606Z" fill="black"/>
<path d="M178.657 62.0606H170.667V70.0509H178.657V62.0606Z" fill="black"/>
<path d="M85.566 69.8182H77.5757V77.8085H85.566V69.8182Z" fill="black"/>
<path d="M93.3236 69.8182H85.3333V77.8085H93.3236V69.8182Z" fill="black"/>
<path d="M124.354 69.8182H116.364V77.8085H124.354V69.8182Z" fill="black"/>
<path d="M132.111 69.8182H124.121V77.8085H132.111V69.8182Z" fill="black"/>
<path d="M147.627 69.8182H139.636V77.8085H147.627V69.8182Z" fill="black"/>
<path d="M155.384 69.8182H147.394V77.8085H155.384V69.8182Z" fill="black"/>
<path d="M163.142 69.8182H155.152V77.8085H163.142V69.8182Z" fill="black"/>
<path d="M170.899 69.8182H162.909V77.8085H170.899V69.8182Z" fill="black"/>
<path d="M39.0206 77.5757H31.0303V85.566H39.0206V77.5757Z" fill="black"/>
<path d="M46.7781 77.5757H38.7878V85.566H46.7781V77.5757Z" fill="black"/>
<path d="M54.5357 77.5757H46.5454V85.566H54.5357V77.5757Z" fill="black"/>
<path d="M70.0508 77.5757H62.0605V85.566H70.0508V77.5757Z" fill="black"/>
<path d="M85.566 77.5757H77.5757V85.566H85.566V77.5757Z" fill="black"/>
<path d="M93.3236 77.5757H85.3333V85.566H93.3236V77.5757Z" fill="black"/>
<path d="M101.081 77.5757H93.0908V85.566H101.081V77.5757Z" fill="black"/>
<path d="M108.839 77.5757H100.848V85.566H108.839V77.5757Z" fill="black"/>
<path d="M124.354 77.5757H116.364V85.566H124.354V77.5757Z" fill="black"/>
<path d="M132.111 77.5757H124.121V85.566H132.111V77.5757Z" fill="black"/>
<path d="M147.627 77.5757H139.636V85.566H147.627V77.5757Z" fill="black"/>
<path d="M186.415 77.5757H178.424V85.566H186.415V77.5757Z" fill="black"/>
<path d="M194.172 77.5757H186.182V85.566H194.172V77.5757Z" fill="black"/>
<path d="M201.93 77.5757H193.939V85.566H201.93V77.5757Z" fill="black"/>
<path d="M225.202 77.5757H217.212V85.566H225.202V77.5757Z" fill="black"/>
<path d="M232.96 77.5757H224.97V85.566H232.96V77.5757Z" fill="black"/>
<path d="M240.718 77.5757H232.727V85.566H240.718V77.5757Z" fill="black"/>
<path d="M23.5054 85.3333H15.5151V93.3236H23.5054V85.3333Z" fill="black"/>
<path d="M46.7781 85.3333H38.7878V93.3236H46.7781V85.3333Z" fill="black"/>
<path d="M62.2933 85.3333H54.303V93.3236H62.2933V85.3333Z" fill="black"/>
<path d="M77.8084 85.3333H69.8181V93.3236H77.8084V85.3333Z" fill="black"/>
<path d="M101.081 85.3333H93.0908V93.3236H101.081V85.3333Z" fill="black"/>
<path d="M139.869 85.3333H131.879V93.3236H139.869V85.3333Z" fill="black"/>
<path d="M147.627 85.3333H139.636V93.3236H147.627V85.3333Z" fill="black"/>
<path d="M163.142 85.3333H155.152V93.3236H163.142V85.3333Z" fill="black"/>
<path d="M178.657 85.3333H170.667V93.3236H178.657V85.3333Z" fill="black"/>
<path d="M186.415 85.3333H178.424V93.3236H186.415V85.3333Z" fill="black"/>
<path d="M194.172 85.3333H186.182V93.3236H194.172V85.3333Z" fill="black"/>
<path d="M201.93 85.3333H193.939V93.3236H201.93V85.3333Z" fill="black"/>
<path d="M209.687 85.3333H201.697V93.3236H209.687V85.3333Z" fill="black"/>
<path d="M217.445 85.3333H209.455V93.3236H217.445V85.3333Z" fill="black"/>
<path d="M240.718 85.3333H232.727V93.3236H240.718V85.3333Z" fill="black"/>
<path d="M23.5054 93.0909H15.5151V101.081H23.5054V93.0909Z" fill="black"/>
<path d="M31.263 93.0909H23.2727V101.081H31.263V93.0909Z" fill="black"/>
<path d="M39.0206 93.0909H31.0303V101.081H39.0206V93.0909Z" fill="black"/>
<path d="M62.2933 93.0909H54.303V101.081H62.2933V93.0909Z" fill="black"/>
<path d="M70.0508 93.0909H62.0605V101.081H70.0508V93.0909Z" fill="black"/>
<path d="M93.3236 93.0909H85.3333V101.081H93.3236V93.0909Z" fill="black"/>
<path d="M101.081 93.0909H93.0908V101.081H101.081V93.0909Z" fill="black"/>
<path d="M116.596 93.0909H108.606V101.081H116.596V93.0909Z" fill="black"/>
<path d="M155.384 93.0909H147.394V101.081H155.384V93.0909Z" fill="black"/>
<path d="M163.142 93.0909H155.152V101.081H163.142V93.0909Z" fill="black"/>
<path d="M186.415 93.0909H178.424V101.081H186.415V93.0909Z" fill="black"/>
<path d="M194.172 93.0909H186.182V101.081H194.172V93.0909Z" fill="black"/>
<path d="M201.93 93.0909H193.939V101.081H201.93V93.0909Z" fill="black"/>
<path d="M39.0206 100.848H31.0303V108.839H39.0206V100.848Z" fill="black"/>
<path d="M46.7781 100.848H38.7878V108.839H46.7781V100.848Z" fill="black"/>
<path d="M54.5357 100.848H46.5454V108.839H54.5357V100.848Z" fill="black"/>
<path d="M93.3236 100.848H85.3333V108.839H93.3236V100.848Z" fill="black"/>
<path d="M101.081 100.848H93.0908V108.839H101.081V100.848Z" fill="black"/>
<path d="M108.839 100.848H100.848V108.839H108.839V100.848Z" fill="black"/>
<path d="M124.354 100.848H116.364V108.839H124.354V100.848Z" fill="black"/>
<path d="M139.869 100.848H131.879V108.839H139.869V100.848Z" fill="black"/>
<path d="M155.384 100.848H147.394V108.839H155.384V100.848Z" fill="black"/>
<path d="M163.142 100.848H155.152V108.839H163.142V100.848Z" fill="black"/>
<path d="M186.415 100.848H178.424V108.839H186.415V100.848Z" fill="black"/>
<path d="M194.172 100.848H186.182V108.839H194.172V100.848Z" fill="black"/>
<path d="M201.93 100.848H193.939V108.839H201.93V100.848Z" fill="black"/>
<path d="M209.687 100.848H201.697V108.839H209.687V100.848Z" fill="black"/>
<path d="M217.445 100.848H209.455V108.839H217.445V100.848Z" fill="black"/>
<path d="M232.96 100.848H224.97V108.839H232.96V100.848Z" fill="black"/>
<path d="M31.263 108.606H23.2727V116.596H31.263V108.606Z" fill="black"/>
<path d="M46.7781 108.606H38.7878V116.596H46.7781V108.606Z" fill="black"/>
<path d="M54.5357 108.606H46.5454V116.596H54.5357V108.606Z" fill="black"/>
<path d="M62.2933 108.606H54.303V116.596H62.2933V108.606Z" fill="black"/>
<path d="M70.0508 108.606H62.0605V116.596H70.0508V108.606Z" fill="black"/>
<path d="M132.111 108.606H124.121V116.596H132.111V108.606Z" fill="black"/>
<path d="M163.142 108.606H155.152V116.596H163.142V108.606Z" fill="black"/>
<path d="M170.899 108.606H162.909V116.596H170.899V108.606Z" fill="black"/>
<path d="M178.657 108.606H170.667V116.596H178.657V108.606Z" fill="black"/>
<path d="M186.415 108.606H178.424V116.596H186.415V108.606Z" fill="black"/>
<path d="M201.93 108.606H193.939V116.596H201.93V108.606Z" fill="black"/>
<path d="M225.202 108.606H217.212V116.596H225.202V108.606Z" fill="black"/>
<path d="M232.96 108.606H224.97V116.596H232.96V108.606Z" fill="black"/>
<path d="M240.718 108.606H232.727V116.596H240.718V108.606Z" fill="black"/>
<path d="M23.5054 116.364H15.5151V124.354H23.5054V116.364Z" fill="black"/>
<path d="M31.263 116.364H23.2727V124.354H31.263V116.364Z" fill="black"/>
<path d="M39.0206 116.364H31.0303V124.354H39.0206V116.364Z" fill="black"/>
<path d="M46.7781 116.364H38.7878V124.354H46.7781V116.364Z" fill="black"/>
<path d="M54.5357 116.364H46.5454V124.354H54.5357V116.364Z" fill="black"/>
<path d="M62.2933 116.364H54.303V124.354H62.2933V116.364Z" fill="black"/>
<path d="M77.8084 116.364H69.8181V124.354H77.8084V116.364Z" fill="black"/>
<path d="M93.3236 116.364H85.3333V124.354H93.3236V116.364Z" fill="black"/>
<path d="M101.081 116.364H93.0908V124.354H101.081V116.364Z" fill="black"/>
<path d="M124.354 116.364H116.364V124.354H124.354V116.364Z" fill="black"/>
<path d="M132.111 116.364H124.121V124.354H132.111V116.364Z" fill="black"/>
<path d="M139.869 116.364H131.879V124.354H139.869V116.364Z" fill="black"/>
<path d="M163.142 116.364H155.152V124.354H163.142V116.364Z" fill="black"/>
<path d="M170.899 116.364H162.909V124.354H170.899V116.364Z" fill="black"/>
<path d="M178.657 116.364H170.667V124.354H178.657V116.364Z" fill="black"/>
<path d="M186.415 116.364H178.424V124.354H186.415V116.364Z" fill="black"/>
<path d="M194.172 116.364H186.182V124.354H194.172V116.364Z" fill="black"/>
<path d="M209.687 116.364H201.697V124.354H209.687V116.364Z" fill="black"/>
<path d="M217.445 116.364H209.455V124.354H217.445V116.364Z" fill="black"/>
<path d="M232.96 116.364H224.97V124.354H232.96V116.364Z" fill="black"/>
<path d="M240.718 116.364H232.727V124.354H240.718V116.364Z" fill="black"/>
<path d="M70.0508 124.121H62.0605V132.111H70.0508V124.121Z" fill="black"/>
<path d="M77.8084 124.121H69.8181V132.111H77.8084V124.121Z" fill="black"/>
<path d="M93.3236 124.121H85.3333V132.111H93.3236V124.121Z" fill="black"/>
<path d="M108.839 124.121H100.848V132.111H108.839V124.121Z" fill="black"/>
<path d="M116.596 124.121H108.606V132.111H116.596V124.121Z" fill="black"/>
<path d="M124.354 124.121H116.364V132.111H124.354V124.121Z" fill="black"/>
<path d="M147.627 124.121H139.636V132.111H147.627V124.121Z" fill="black"/>
<path d="M163.142 124.121H155.152V132.111H163.142V124.121Z" fill="black"/>
<path d="M178.657 124.121H170.667V132.111H178.657V124.121Z" fill="black"/>
<path d="M186.415 124.121H178.424V132.111H186.415V124.121Z" fill="black"/>
<path d="M194.172 124.121H186.182V132.111H194.172V124.121Z" fill="black"/>
<path d="M201.93 124.121H193.939V132.111H201.93V124.121Z" fill="black"/>
<path d="M39.0206 131.879H31.0303V139.869H39.0206V131.879Z" fill="black"/>
<path d="M62.2933 131.879H54.303V139.869H62.2933V131.879Z" fill="black"/>
<path d="M85.566 131.879H77.5757V139.869H85.566V131.879Z" fill="black"/>
<path d="M124.354 131.879H116.364V139.869H124.354V131.879Z" fill="black"/>
<path d="M139.869 131.879H131.879V139.869H139.869V131.879Z" fill="black"/>
<path d="M147.627 131.879H139.636V139.869H147.627V131.879Z" fill="black"/>
<path d="M194.172 131.879H186.182V139.869H194.172V131.879Z" fill="black"/>
<path d="M209.687 131.879H201.697V139.869H209.687V131.879Z" fill="black"/>
<path d="M217.445 131.879H209.455V139.869H217.445V131.879Z" fill="black"/>
<path d="M240.718 131.879H232.727V139.869H240.718V131.879Z" fill="black"/>
<path d="M31.263 139.636H23.2727V147.627H31.263V139.636Z" fill="black"/>
<path d="M46.7781 139.636H38.7878V147.627H46.7781V139.636Z" fill="black"/>
<path d="M54.5357 139.636H46.5454V147.627H54.5357V139.636Z" fill="black"/>
<path d="M62.2933 139.636H54.303V147.627H62.2933V139.636Z" fill="black"/>
<path d="M70.0508 139.636H62.0605V147.627H70.0508V139.636Z" fill="black"/>
<path d="M85.566 139.636H77.5757V147.627H85.566V139.636Z" fill="black"/>
<path d="M201.93 139.636H193.939V147.627H201.93V139.636Z" fill="black"/>
<path d="M217.445 139.636H209.455V147.627H217.445V139.636Z" fill="black"/>
<path d="M225.202 139.636H217.212V147.627H225.202V139.636Z" fill="black"/>
<path d="M240.718 139.636H232.727V147.627H240.718V139.636Z" fill="black"/>
<path d="M23.5054 147.394H15.5151V155.384H23.5054V147.394Z" fill="black"/>
<path d="M39.0206 147.394H31.0303V155.384H39.0206V147.394Z" fill="black"/>
<path d="M46.7781 147.394H38.7878V155.384H46.7781V147.394Z" fill="black"/>
<path d="M54.5357 147.394H46.5454V155.384H54.5357V147.394Z" fill="black"/>
<path d="M101.081 147.394H93.0908V155.384H101.081V147.394Z" fill="black"/>
<path d="M132.111 147.394H124.121V155.384H132.111V147.394Z" fill="black"/>
<path d="M155.384 147.394H147.394V155.384H155.384V147.394Z" fill="black"/>
<path d="M163.142 147.394H155.152V155.384H163.142V147.394Z" fill="black"/>
<path d="M170.899 147.394H162.909V155.384H170.899V147.394Z" fill="black"/>
<path d="M178.657 147.394H170.667V155.384H178.657V147.394Z" fill="black"/>
<path d="M186.415 147.394H178.424V155.384H186.415V147.394Z" fill="black"/>
<path d="M201.93 147.394H193.939V155.384H201.93V147.394Z" fill="black"/>
<path d="M209.687 147.394H201.697V155.384H209.687V147.394Z" fill="black"/>
<path d="M217.445 147.394H209.455V155.384H217.445V147.394Z" fill="black"/>
<path d="M232.96 147.394H224.97V155.384H232.96V147.394Z" fill="black"/>
<path d="M240.718 147.394H232.727V155.384H240.718V147.394Z" fill="black"/>
<path d="M23.5054 155.151H15.5151V163.142H23.5054V155.151Z" fill="black"/>
<path d="M39.0206 155.151H31.0303V163.142H39.0206V155.151Z" fill="black"/>
<path d="M54.5357 155.151H46.5454V163.142H54.5357V155.151Z" fill="black"/>
<path d="M62.2933 155.151H54.303V163.142H62.2933V155.151Z" fill="black"/>
<path d="M70.0508 155.151H62.0605V163.142H70.0508V155.151Z" fill="black"/>
<path d="M77.8084 155.151H69.8181V163.142H77.8084V155.151Z" fill="black"/>
<path d="M101.081 155.151H93.0908V163.142H101.081V155.151Z" fill="black"/>
<path d="M108.839 155.151H100.848V163.142H108.839V155.151Z" fill="black"/>
<path d="M116.596 155.151H108.606V163.142H116.596V155.151Z" fill="black"/>
<path d="M139.869 155.151H131.879V163.142H139.869V155.151Z" fill="black"/>
<path d="M155.384 155.151H147.394V163.142H155.384V155.151Z" fill="black"/>
<path d="M194.172 155.151H186.182V163.142H194.172V155.151Z" fill="black"/>
<path d="M201.93 155.151H193.939V163.142H201.93V155.151Z" fill="black"/>
<path d="M217.445 155.151H209.455V163.142H217.445V155.151Z" fill="black"/>
<path d="M23.5054 162.909H15.5151V170.899H23.5054V162.909Z" fill="black"/>
<path d="M39.0206 162.909H31.0303V170.899H39.0206V162.909Z" fill="black"/>
<path d="M54.5357 162.909H46.5454V170.899H54.5357V162.909Z" fill="black"/>
<path d="M62.2933 162.909H54.303V170.899H62.2933V162.909Z" fill="black"/>
<path d="M93.3236 162.909H85.3333V170.899H93.3236V162.909Z" fill="black"/>
<path d="M108.839 162.909H100.848V170.899H108.839V162.909Z" fill="black"/>
<path d="M116.596 162.909H108.606V170.899H116.596V162.909Z" fill="black"/>
<path d="M155.384 162.909H147.394V170.899H155.384V162.909Z" fill="black"/>
<path d="M163.142 162.909H155.152V170.899H163.142V162.909Z" fill="black"/>
<path d="M170.899 162.909H162.909V170.899H170.899V162.909Z" fill="black"/>
<path d="M194.172 162.909H186.182V170.899H194.172V162.909Z" fill="black"/>
<path d="M201.93 162.909H193.939V170.899H201.93V162.909Z" fill="black"/>
<path d="M217.445 162.909H209.455V170.899H217.445V162.909Z" fill="black"/>
<path d="M240.718 162.909H232.727V170.899H240.718V162.909Z" fill="black"/>
<path d="M23.5054 170.667H15.5151V178.657H23.5054V170.667Z" fill="black"/>
<path d="M39.0206 170.667H31.0303V178.657H39.0206V170.667Z" fill="black"/>
<path d="M46.7781 170.667H38.7878V178.657H46.7781V170.667Z" fill="black"/>
<path d="M54.5357 170.667H46.5454V178.657H54.5357V170.667Z" fill="black"/>
<path d="M62.2933 170.667H54.303V178.657H62.2933V170.667Z" fill="black"/>
<path d="M70.0508 170.667H62.0605V178.657H70.0508V170.667Z" fill="black"/>
<path d="M77.8084 170.667H69.8181V178.657H77.8084V170.667Z" fill="black"/>
<path d="M101.081 170.667H93.0908V178.657H101.081V170.667Z" fill="black"/>
<path d="M116.596 170.667H108.606V178.657H116.596V170.667Z" fill="black"/>
<path d="M124.354 170.667H116.364V178.657H124.354V170.667Z" fill="black"/>
<path d="M155.384 170.667H147.394V178.657H155.384V170.667Z" fill="black"/>
<path d="M178.657 170.667H170.667V178.657H178.657V170.667Z" fill="black"/>
<path d="M186.415 170.667H178.424V178.657H186.415V170.667Z" fill="black"/>
<path d="M194.172 170.667H186.182V178.657H194.172V170.667Z" fill="black"/>
<path d="M201.93 170.667H193.939V178.657H201.93V170.667Z" fill="black"/>
<path d="M209.687 170.667H201.697V178.657H209.687V170.667Z" fill="black"/>
<path d="M217.445 170.667H209.455V178.657H217.445V170.667Z" fill="black"/>
<path d="M225.202 170.667H217.212V178.657H225.202V170.667Z" fill="black"/>
<path d="M85.566 178.424H77.5757V186.415H85.566V178.424Z" fill="black"/>
<path d="M108.839 178.424H100.848V186.415H108.839V178.424Z" fill="black"/>
<path d="M124.354 178.424H116.364V186.415H124.354V178.424Z" fill="black"/>
<path d="M163.142 178.424H155.152V186.415H163.142V178.424Z" fill="black"/>
<path d="M170.899 178.424H162.909V186.415H170.899V178.424Z" fill="black"/>
<path d="M178.657 178.424H170.667V186.415H178.657V178.424Z" fill="black"/>
<path d="M209.687 178.424H201.697V186.415H209.687V178.424Z" fill="black"/>
<path d="M217.445 178.424H209.455V186.415H217.445V178.424Z" fill="black"/>
<path d="M232.96 178.424H224.97V186.415H232.96V178.424Z" fill="black"/>
<path d="M240.718 178.424H232.727V186.415H240.718V178.424Z" fill="black"/>
<path d="M116.596 186.182H108.606V194.172H116.596V186.182Z" fill="black"/>
<path d="M124.354 186.182H116.364V194.172H124.354V186.182Z" fill="black"/>
<path d="M132.111 186.182H124.121V194.172H132.111V186.182Z" fill="black"/>
<path d="M139.869 186.182H131.879V194.172H139.869V186.182Z" fill="black"/>
<path d="M170.899 186.182H162.909V194.172H170.899V186.182Z" fill="black"/>
<path d="M178.657 186.182H170.667V194.172H178.657V186.182Z" fill="black"/>
<path d="M194.172 186.182H186.182V194.172H194.172V186.182Z" fill="black"/>
<path d="M209.687 186.182H201.697V194.172H209.687V186.182Z" fill="black"/>
<path d="M93.3236 193.939H85.3333V201.93H93.3236V193.939Z" fill="black"/>
<path d="M101.081 193.939H93.0908V201.93H101.081V193.939Z" fill="black"/>
<path d="M108.839 193.939H100.848V201.93H108.839V193.939Z" fill="black"/>
<path d="M124.354 193.939H116.364V201.93H124.354V193.939Z" fill="black"/>
<path d="M147.627 193.939H139.636V201.93H147.627V193.939Z" fill="black"/>
<path d="M170.899 193.939H162.909V201.93H170.899V193.939Z" fill="black"/>
<path d="M178.657 193.939H170.667V201.93H178.657V193.939Z" fill="black"/>
<path d="M209.687 193.939H201.697V201.93H209.687V193.939Z" fill="black"/>
<path d="M217.445 193.939H209.455V201.93H217.445V193.939Z" fill="black"/>
<path d="M240.718 193.939H232.727V201.93H240.718V193.939Z" fill="black"/>
<path d="M85.566 201.697H77.5757V209.687H85.566V201.697Z" fill="black"/>
<path d="M93.3236 201.697H85.3333V209.687H93.3236V201.697Z" fill="black"/>
<path d="M155.384 201.697H147.394V209.687H155.384V201.697Z" fill="black"/>
<path d="M163.142 201.697H155.152V209.687H163.142V201.697Z" fill="black"/>
<path d="M178.657 201.697H170.667V209.687H178.657V201.697Z" fill="black"/>
<path d="M186.415 201.697H178.424V209.687H186.415V201.697Z" fill="black"/>
<path d="M194.172 201.697H186.182V209.687H194.172V201.697Z" fill="black"/>
<path d="M201.93 201.697H193.939V209.687H201.93V201.697Z" fill="black"/>
<path d="M209.687 201.697H201.697V209.687H209.687V201.697Z" fill="black"/>
<path d="M217.445 201.697H209.455V209.687H217.445V201.697Z" fill="black"/>
<path d="M225.202 201.697H217.212V209.687H225.202V201.697Z" fill="black"/>
<path d="M232.96 201.697H224.97V209.687H232.96V201.697Z" fill="black"/>
<path d="M85.566 209.455H77.5757V217.445H85.566V209.455Z" fill="black"/>
<path d="M132.111 209.455H124.121V217.445H132.111V209.455Z" fill="black"/>
<path d="M139.869 209.455H131.879V217.445H139.869V209.455Z" fill="black"/>
<path d="M170.899 209.455H162.909V217.445H170.899V209.455Z" fill="black"/>
<path d="M178.657 209.455H170.667V217.445H178.657V209.455Z" fill="black"/>
<path d="M186.415 209.455H178.424V217.445H186.415V209.455Z" fill="black"/>
<path d="M201.93 209.455H193.939V217.445H201.93V209.455Z" fill="black"/>
<path d="M85.566 217.212H77.5757V225.202H85.566V217.212Z" fill="black"/>
<path d="M93.3236 217.212H85.3333V225.202H93.3236V217.212Z" fill="black"/>
<path d="M101.081 217.212H93.0908V225.202H101.081V217.212Z" fill="black"/>
<path d="M124.354 217.212H116.364V225.202H124.354V217.212Z" fill="black"/>
<path d="M139.869 217.212H131.879V225.202H139.869V217.212Z" fill="black"/>
<path d="M147.627 217.212H139.636V225.202H147.627V217.212Z" fill="black"/>
<path d="M163.142 217.212H155.152V225.202H163.142V217.212Z" fill="black"/>
<path d="M170.899 217.212H162.909V225.202H170.899V217.212Z" fill="black"/>
<path d="M178.657 217.212H170.667V225.202H178.657V217.212Z" fill="black"/>
<path d="M186.415 217.212H178.424V225.202H186.415V217.212Z" fill="black"/>
<path d="M194.172 217.212H186.182V225.202H194.172V217.212Z" fill="black"/>
<path d="M201.93 217.212H193.939V225.202H201.93V217.212Z" fill="black"/>
<path d="M209.687 217.212H201.697V225.202H209.687V217.212Z" fill="black"/>
<path d="M217.445 217.212H209.455V225.202H217.445V217.212Z" fill="black"/>
<path d="M225.202 217.212H217.212V225.202H225.202V217.212Z" fill="black"/>
<path d="M232.96 217.212H224.97V225.202H232.96V217.212Z" fill="black"/>
<path d="M101.081 224.97H93.0908V232.96H101.081V224.97Z" fill="black"/>
<path d="M116.596 224.97H108.606V232.96H116.596V224.97Z" fill="black"/>
<path d="M132.111 224.97H124.121V232.96H132.111V224.97Z" fill="black"/>
<path d="M139.869 224.97H131.879V232.96H139.869V224.97Z" fill="black"/>
<path d="M155.384 224.97H147.394V232.96H155.384V224.97Z" fill="black"/>
<path d="M163.142 224.97H155.152V232.96H163.142V224.97Z" fill="black"/>
<path d="M186.415 224.97H178.424V232.96H186.415V224.97Z" fill="black"/>
<path d="M194.172 224.97H186.182V232.96H194.172V224.97Z" fill="black"/>
<path d="M209.687 224.97H201.697V232.96H209.687V224.97Z" fill="black"/>
<path d="M232.96 224.97H224.97V232.96H232.96V224.97Z" fill="black"/>
<path d="M93.3236 232.727H85.3333V240.718H93.3236V232.727Z" fill="black"/>
<path d="M101.081 232.727H93.0908V240.718H101.081V232.727Z" fill="black"/>
<path d="M124.354 232.727H116.364V240.718H124.354V232.727Z" fill="black"/>
<path d="M132.111 232.727H124.121V240.718H132.111V232.727Z" fill="black"/>
<path d="M139.869 232.727H131.879V240.718H139.869V232.727Z" fill="black"/>
<path d="M163.142 232.727H155.152V240.718H163.142V232.727Z" fill="black"/>
<path d="M170.899 232.727H162.909V240.718H170.899V232.727Z" fill="black"/>
<path d="M186.415 232.727H178.424V240.718H186.415V232.727Z" fill="black"/>
<path d="M209.687 232.727H201.697V240.718H209.687V232.727Z" fill="black"/>
<path d="M225.202 232.727H217.212V240.718H225.202V232.727Z" fill="black"/>
<path d="M15.5151 15.5151V69.8182H69.8182V15.5151H15.5151ZM62.0606 62.0606H23.2727V23.2727H62.0606V62.0606Z" fill="black"/>
<path d="M186.182 15.5151V69.8182H240.485V15.5151H186.182ZM232.727 62.0606H193.939V23.2727H232.727V62.0606Z" fill="black"/>
<path d="M15.5151 186.182V240.485H69.8182V186.182H15.5151ZM62.0606 232.727H23.2727V193.939H62.0606V232.727Z" fill="black"/>
<path d="M54.303 31.0303H31.0303V54.303H54.303V31.0303Z" fill="black"/>
<path d="M224.97 31.0303H201.697V54.303H224.97V31.0303Z" fill="black"/>
<path d="M54.303 201.697H31.0303V224.97H54.303V201.697Z" fill="black"/>
</g>
<defs>
<clipPath id="clip0_81_28">
<rect width="256" height="256" fill="white"/>
</clipPath>
</defs>
</svg>
